<?xml version="1.0" encoding="UTF-8"?>
<svg width="210mm" height="297mm" version="1.1" viewBox="0 0 210 297" xmlns="http://www.w3.org/2000/svg" xmlns:cc="http://creativecommons.org/ns#" xmlns:dc="http://purl.org/dc/elements/1.1/" xmlns:osb="http://www.openswatchbook.org/uri/2009/osb" xmlns:rdf="http://www.w3.org/1999/02/22-rdf-syntax-ns#" xmlns:xlink="http://www.w3.org/1999/xlink">
 <defs>
  <radialGradient id="radialGradient842" cx="99.693" cy="119.08" r="56.323" gradientTransform="matrix(-10.272 0 0 -13.817 1400.8 1982.4)" gradientUnits="userSpaceOnUse">
   <stop stop-color="#39f1e6" offset="0"/>
   <stop stop-color="#00397b" offset="1"/>
  </radialGradient>
  <radialGradient id="radialGradient885" cx="100.2" cy="264.4" r="43.593" gradientTransform="matrix(1 0 0 .29883 0 185.39)" gradientUnits="userSpaceOnUse">
   <stop stop-color="#00397b" offset="0"/>
   <stop stop-color="#00397b" stop-opacity="0" offset="1"/>
  </radialGradient>
 </defs>
 <metadata>
  <rdf:RDF>
   <cc:Work rdf:about="">
    <dc:format>image/svg+xml</dc:format>
    <dc:type rdf:resource="http://purl.org/dc/dcmitype/StillImage"/>
    <dc:title/>
   </cc:Work>
  </rdf:RDF>
 </metadata>
 <g>
  <path transform="scale(.26458)" d="m378.7 112.12c-114.81 0-207.88 93.069-207.88 207.88 1e-5 114.81 207.88 499.3 207.88 679.3 0-177.14 207.87-564.5 207.87-679.3 0-114.81-93.067-207.88-207.87-207.88zm-0.83398 85.871a124.74 124.74 0 0 1 0.59766 0 124.74 124.74 0 0 1 124.74 124.74 124.74 124.74 0 0 1-124.74 124.74 124.74 124.74 0 0 1-124.74-124.74 124.74 124.74 0 0 1 124.15-124.74z" fill="url(#radialGradient842)" stroke="#5880ed" stroke-linecap="round" stroke-width="10"/>
  <ellipse cx="100.2" cy="264.4" rx="43.593" ry="13.027" fill="url(#radialGradient885)"/>
 </g>
</svg>
